<?xml version="1.0" encoding="UTF-8" standalone="no"?>
<svg
   xmlns:dc="http://purl.org/dc/elements/1.1/"
   xmlns:cc="http://creativecommons.org/ns#"
   xmlns:rdf="http://www.w3.org/1999/02/22-rdf-syntax-ns#"
   xmlns:svg="http://www.w3.org/2000/svg"
   xmlns="http://www.w3.org/2000/svg"
   xmlns:sodipodi="http://sodipodi.sourceforge.net/DTD/sodipodi-0.dtd"
   xmlns:inkscape="http://www.inkscape.org/namespaces/inkscape"
   version="1.1"
   viewBox="0 0 455.881 455.881"
   enable-background="new 0 0 455.881 455.881"
   id="svg2"
   inkscape:version="0.91 r13725"
   sodipodi:docname="light.svg">
  <metadata
     id="metadata38">
    <rdf:RDF>
      <cc:Work
         rdf:about="">
        <dc:format>image/svg+xml</dc:format>
        <dc:type
           rdf:resource="http://purl.org/dc/dcmitype/StillImage" />
      </cc:Work>
    </rdf:RDF>
  </metadata>
  <defs
     id="defs36" />
  <sodipodi:namedview
     pagecolor="#ffffff"
     bordercolor="#666666"
     borderopacity="1"
     objecttolerance="10"
     gridtolerance="10"
     guidetolerance="10"
     inkscape:pageopacity="0"
     inkscape:pageshadow="2"
     inkscape:window-width="943"
     inkscape:window-height="788"
     id="namedview34"
     showgrid="false"
     inkscape:zoom="0.18302715"
     inkscape:cx="132.78805"
     inkscape:cy="804.79134"
     inkscape:window-x="3245"
     inkscape:window-y="88"
     inkscape:window-maximized="0"
     inkscape:current-layer="svg2" />
  <g
     id="g4">
    <path
       d="m321.218,257.555c15.516-20.46 23.717-44.881 23.717-70.624 0-31.563-12.379-61.151-34.857-83.314-22.474-22.158-52.261-34.124-83.828-33.668-30.591,0.433-59.412,12.708-81.154,34.564-21.741,21.855-33.867,50.741-34.145,81.335-0.238,26.228 8.011,51.088 23.855,71.894 25.721,33.776 39.887,75.149 39.887,116.498v45.244c0,20.069 16.327,36.396 36.396,36.396h33.854c20.069,0 36.396-16.328 36.396-36.396v-45.241c0.001-41.806 13.691-82.157 39.879-116.688zm-174.478-8.9c-13.808-18.132-20.997-39.803-20.79-62.67 0.499-54.935 45.588-100.26 100.512-101.037 27.553-0.37 53.493,10.035 73.084,29.352 19.597,19.321 30.389,45.116 30.389,72.632 0,22.442-7.147,43.729-20.669,61.56-27.593,36.385-42.45,78.833-43.058,122.93h-76.536c-0.627-43.669-15.817-87.161-42.932-122.767zm42.953,165.746v-6.072l76.647,8.781v2.374c0,1.25-0.13,2.468-0.336,3.659l-76.311-8.742zm0-21.17v-6.809h76.647v15.59l-76.647-8.781zm21.396,47.65c-8.057,0-15.082-4.48-18.731-11.077l64.567,7.397c-3.421,2.321-7.545,3.679-11.981,3.679h-33.855z"
       id="path6" />
    <path
       d="m153.776,198.213c-0.585-3.925-0.864-7.957-0.827-11.983 0.038-4.142-3.289-7.53-7.431-7.568-4.114-0.036-7.53,3.289-7.568,7.431-0.044,4.81 0.289,9.632 0.99,14.333 0.555,3.722 3.755,6.395 7.409,6.395 0.368,0 0.741-0.027 1.116-0.083 4.096-0.612 6.922-4.428 6.311-8.525z"
       id="path8" />
    <path
       d="m197.913,312.135c0.776,0 1.566-0.122 2.344-0.377 3.935-1.294 6.076-5.533 4.782-9.467-8.312-25.277-20.7-48.827-36.82-69.994-2.664-3.499-5.025-7.226-7.016-11.079-1.902-3.68-6.427-5.12-10.107-3.218-3.679,1.902-5.12,6.427-3.218,10.107 2.39,4.622 5.218,9.089 8.408,13.278 15.106,19.836 26.715,41.904 34.504,65.591 1.038,3.157 3.971,5.159 7.123,5.159z"
       id="path10" />
    <path
       d="m306.746,212.613c-3.804-1.639-8.217,0.117-9.855,3.921-2.376,5.518-5.451,10.781-9.139,15.643-2.503,3.3-1.856,8.005 1.444,10.508 1.355,1.028 2.947,1.524 4.526,1.524 2.267,0 4.507-1.023 5.982-2.969 4.419-5.827 8.107-12.143 10.963-18.772 1.639-3.804-0.116-8.217-3.921-9.855z"
       id="path12" />
    <path
       d="m227.941,111.938c41.352,0 74.994,33.643 74.994,74.995 0,2.351-0.108,4.72-0.321,7.041-0.378,4.125 2.658,7.775 6.783,8.154 0.233,0.021 0.464,0.032 0.694,0.032 3.833,0 7.103-2.923 7.46-6.815 0.254-2.775 0.384-5.605 0.384-8.412 0-49.623-40.371-89.995-89.994-89.995-4.142,0-7.5,3.358-7.5,7.5s3.358,7.5 7.5,7.5z"
       id="path14" />
    <path
       d="m227.941,57c4.142,0 7.5-3.358 7.5-7.5v-42c0-4.142-3.358-7.5-7.5-7.5s-7.5,3.358-7.5,7.5v42c0,4.142 3.358,7.5 7.5,7.5z"
       id="path16" />
    <path
       d="m152.065,71.82c1.39,2.407 3.91,3.752 6.502,3.752 1.272,0 2.562-0.324 3.743-1.006 3.587-2.071 4.817-6.658 2.746-10.245l-20.99-36.36c-2.072-3.588-6.658-4.817-10.245-2.746-3.587,2.071-4.817,6.658-2.746,10.245l20.99,36.36z"
       id="path18" />
    <path
       d="m388.22,272.115l-36.36-20.99c-3.588-2.072-8.175-0.842-10.245,2.746-2.071,3.587-0.842,8.174 2.746,10.245l36.36,20.99c1.181,0.682 2.47,1.006 3.743,1.006 2.592,0 5.113-1.346 6.502-3.752 2.071-3.587 0.841-8.174-2.746-10.245z"
       id="path20" />
    <path
       d="m67.661,104.366l36.36,20.99c1.181,0.682 2.47,1.006 3.743,1.006 2.592,0 5.113-1.346 6.502-3.752 2.071-3.587 0.842-8.174-2.746-10.245l-36.36-20.99c-3.587-2.072-8.174-0.842-10.245,2.746-2.071,3.587-0.842,8.173 2.746,10.245z"
       id="path22" />
    <path
       d="m408.68,180.74h-42c-4.142,0-7.5,3.358-7.5,7.5s3.358,7.5 7.5,7.5h42c4.142,0 7.5-3.358 7.5-7.5s-3.357-7.5-7.5-7.5z"
       id="path24" />
    <path
       d="m96.7,188.24c0-4.142-3.358-7.5-7.5-7.5h-42c-4.142,0-7.5,3.358-7.5,7.5s3.358,7.5 7.5,7.5h42c4.143,0 7.5-3.358 7.5-7.5z"
       id="path26" />
    <path
       d="m348.117,126.362c1.272,0 2.562-0.324 3.743-1.006l36.36-20.99c3.587-2.071 4.817-6.658 2.746-10.245-2.071-3.587-6.659-4.817-10.245-2.746l-36.36,20.99c-3.587,2.071-4.817,6.658-2.746,10.245 1.389,2.406 3.911,3.752 6.502,3.752z"
       id="path28" />
    <path
       d="m104.021,251.125l-36.36,20.99c-3.587,2.071-4.817,6.658-2.746,10.245 1.389,2.406 3.91,3.752 6.502,3.752 1.272,0 2.562-0.324 3.743-1.006l36.36-20.99c3.587-2.071 4.817-6.658 2.746-10.245-2.07-3.588-6.66-4.817-10.245-2.746z"
       id="path30" />
    <path
       d="m293.571,74.566c1.181,0.682 2.47,1.006 3.743,1.006 2.592,0 5.113-1.346 6.502-3.752l20.99-36.36c2.071-3.587 0.841-8.174-2.746-10.245-3.586-2.071-8.174-0.842-10.245,2.746l-20.99,36.36c-2.071,3.587-0.841,8.174 2.746,10.245z"
       id="path32" />
  </g>
  <path
     style="fill:#ffd42a"
     d="m 189.96725,369.06636 c -0.18503,-1.22079 -0.48903,-5.29293 -0.67557,-9.04921 -0.92921,-18.7115 -6.26441,-41.99012 -14.13973,-61.69467 -6.80008,-17.01423 -15.13408,-31.86857 -27.71901,-49.40576 -9.99872,-13.9333 -14.89382,-24.12769 -18.25907,-38.02576 -7.06238,-29.16681 -0.67614,-60.21673 17.31289,-84.17538 27.12314,-36.123886 72.87225,-50.339394 114.912,-35.706317 33.85324,11.783537 58.25682,39.730847 66.27189,75.895477 2.1527,9.71311 2.13956,30.23409 -0.0258,40.25832 -3.30008,15.27755 -9.17911,27.89802 -19.98318,42.89772 -25.48862,35.38684 -39.26292,72.8596 -41.35937,112.51747 l -0.46032,8.70772 -37.76918,0 -37.76918,0 -0.33641,-2.21961 -1e-5,0 z m 12.98737,-58.63711 c 3.25347,-3.05647 3.34975,-5.25718 0.58413,-13.35116 -6.86152,-20.08125 -18.90848,-42.99122 -31.72651,-60.335 -2.63729,-3.56846 -6.20628,-8.84864 -7.93108,-11.73373 -3.82701,-6.40149 -4.88688,-7.40487 -8.30613,-7.8635 -3.55022,-0.47617 -6.48737,1.10117 -8.00476,4.29882 -2.01127,4.23844 -0.20832,8.05493 11.54559,24.4399 3.53393,4.9263 8.34525,12.1839 10.69181,16.12798 5.58063,9.37989 14.212,27.25371 17.31475,35.85534 3.80712,10.55435 4.90059,12.57988 7.39681,13.70175 2.80996,1.26286 6.39283,0.77849 8.43539,-1.1404 z m 95.3837,-67.54165 c 2.36484,-1.86019 7.5785,-9.90219 10.87918,-16.78098 2.11064,-4.39869 2.6176,-6.1273 2.2662,-7.7272 -1.11961,-5.09754 -6.18218,-7.91504 -10.77435,-5.99631 -2.08395,0.87074 -2.9443,1.93385 -5.20708,6.43428 -1.49085,2.96517 -4.1872,7.51997 -5.99187,10.12179 -2.80123,4.03856 -3.28356,5.21336 -3.29708,8.03067 -0.0138,2.87409 0.27207,3.55732 2.21455,5.29293 2.77649,2.48079 7.19667,2.75947 9.91045,0.62482 z M 151.0271,205.56932 c 2.6437,-1.73223 3.08089,-3.88156 2.59801,-12.77245 -0.61484,-11.32024 -2.24541,-14.10528 -8.25833,-14.10528 -2.25461,0 -3.41325,0.45055 -5.14097,1.99916 l -2.23039,1.99915 0.068,8.48947 c 0.0549,6.85613 0.31774,9.00092 1.36591,11.1478 2.25249,4.61358 7.33586,6.03464 11.59773,3.24215 z m 162.50348,-4.05138 c 3.63701,-1.72588 4.4249,-4.29043 4.42174,-14.39258 -0.006,-18.76666 -4.62862,-34.43913 -14.67505,-49.75278 -15.80273,-24.0879 -41.77393,-38.990412 -70.48968,-40.447622 l -7.65165,-0.38829 -2.42199,2.421992 c -1.88919,1.88919 -2.42199,2.97032 -2.42199,4.91456 0,5.7474 3.56348,8.57137 10.81594,8.57137 13.01952,0 30.01536,6.09231 41.8356,14.99635 12.94666,9.75256 23.34703,25.39509 27.18367,40.88519 2.03768,8.22698 2.25523,10.13066 2.23274,19.53732 -0.0238,9.96139 0.54136,11.82551 4.12014,13.58924 2.84382,1.40151 4.20796,1.41413 7.05053,0.0652 l 0,3e-5 z"
     id="path3370"
     inkscape:connector-curvature="0" />
</svg>
